Coordinates
version=1
nRows=41
nColumns=38
inDegrees=no

Units are S.I. units (second, meters, Newtons, ...)
If the header above contains a line with 'inDegrees', this indicates whether rotational values are in degrees (yes) or radians (no).

endheader
time	pelvis_tilt	pelvis_list	pelvis_rotation	pelvis_tx	pelvis_ty	pelvis_tz	hip_flexion_r	hip_adduction_r	hip_rotation_r	knee_angle_r	ankle_angle_r	subtalar_angle_r	mtp_angle_r	hip_flexion_l	hip_adduction_l	hip_rotation_l	knee_angle_l	ankle_angle_l	subtalar_angle_l	mtp_angle_l	lumbar_extension	lumbar_bending	lumbar_rotation	arm_flex_r	arm_add_r	arm_rot_r	elbow_flex_r	pro_sup_r	wrist_flex_r	wrist_dev_r	arm_flex_l	arm_add_l	arm_rot_l	elbow_flex_l	pro_sup_l	wrist_flex_l	wrist_dev_l
195	-1.71082	1.46393	0.353791	0.710923	1.08559	0.876084	-0.244613	0.0937104	-0.178977	0.400243	-0.11924	0	0	0.321799	-0.0655123	0.0417406	0	-0.529028	0	0	-0.0262106	0.153679	0.37527	0.831074	-0.0731224	0.4859	0.453621	0.843765	0	0	0.0166482	-0.100422	0.182361	0.3591	1.5708	0	0
195.01	-1.70145	1.48818	0.33913	0.711507	1.07682	0.880005	-0.255542	0.0675644	-0.171121	0.413597	-0.128565	0	0	0.300242	-0.0420733	0.0274332	0	-0.511067	0	0	-0.0438923	0.12038	0.384351	0.832872	-0.0678381	0.476193	0.459392	0.85849	0	0	0.0252566	-0.103648	0.16892	0.35357	1.5708	0	0
195.02	-1.52594	1.49843	0.208503	0.717993	1.07308	0.880971	-0.269524	0.0627601	-0.217542	0.436779	-0.137461	0	0	0.281779	-0.020109	0.083402	0	-0.525181	0	0	-0.0709931	0.113452	0.344039	0.846338	-0.0695493	0.469879	0.472414	0.872713	0	0	0.0387615	-0.0997577	0.162394	0.353746	1.5708	0	0
195.03	-1.51573	1.50522	0.205874	0.721421	1.06461	0.881662	-0.273127	0.0520737	-0.226741	0.454341	-0.146392	0	0	0.272983	-0.0123201	0.101113	0	-0.537306	0	0	-0.0764936	0.105307	0.33715	0.846601	-0.0661203	0.466589	0.48059	0.882119	0	0	0.0404375	-0.0995291	0.157359	0.351329	1.5708	0	0
195.04	-1.81769	1.46961	0.502337	0.725378	1.05441	0.876104	-0.225488	0.0675372	-0.212968	0.504498	-0.167366	0	0	0.313171	-0.0456491	0.149775	0	-0.488381	0	0	-0.0301586	0.138945	0.344054	0.82695	-0.0542824	0.343237	0.46355	1.39629	0	0	0.0264594	-0.0932627	0.154819	0.347929	1.5708	0	0
195.05	-1.89632	1.47067	0.576033	0.728001	1.0448	0.876143	-0.218676	0.0565267	-0.202475	0.524051	-0.177309	0	0	0.329632	-0.0396895	0.120512	0	-0.435581	0	0	-0.0243905	0.133048	0.34998	0.820401	-0.0508048	0.340863	0.471828	1.40153	0	0	0.0265949	-0.0934598	0.156214	0.341462	1.5708	0	0
195.06	-1.76549	1.4951	0.450634	0.72824	1.03548	0.881197	-0.246748	0.0445402	-0.19439	0.527442	-0.194418	0	0	0.484721	-0.0278404	-0.101326	0.391433	-0.317436	0	0	-0.0560601	0.104993	0.350184	0.819585	-0.0443528	0.330629	0.482293	1.40977	0	0	0.0426632	-0.100314	0.160109	0.331942	1.5708	0	0
195.07	-1.87622	1.4624	0.571962	0.733065	1.02682	0.877314	-0.214862	0.0647142	-0.190129	0.560492	-0.20403	0	0	0.595928	-0.0219402	0.00885696	0.46154	-0.387465	0	0	-0.0240641	0.136763	0.339006	0.809725	-0.0470408	0.34401	0.491155	1.43773	0	0	0.0351836	-0.0951513	0.165581	0.327217	1.5708	0	0
195.08	-1.83544	1.45276	0.50661	0.735122	1.01411	0.876679	-0.216415	0.0657398	-0.158865	0.579647	-0.223258	0	0	0.514954	-0.0675699	-0.0990635	0.458002	-0.268597	0	0	-0.0183753	0.152716	0.364518	0.794162	-0.0476189	0.344236	0.501811	1.47215	0	0	0.0275627	-0.0935305	0.178254	0.321891	1.5708	0	0
195.09	-1.98181	1.47007	0.686377	0.739347	1.00871	0.879464	-0.201524	0.0394785	-0.192613	0.614988	-0.242371	0	0	0.558221	-0.00260757	0.0168905	0.418672	-0.412987	0	0	-0.0208536	0.119352	0.338344	0.784807	-0.0424574	0.310915	0.518352	1.50238	0	0	0.0526022	-0.097271	0.208275	0.297733	1.5708	0	0
195.1	-2.1855	1.51072	0.897569	0.742123	1.00056	0.885112	-0.213564	-0.0118249	-0.213431	0.644043	-0.267959	0	0	0.421609	0.013839	-0.100778	0.290282	-0.404532	0	0	-0.0471478	0.0671177	0.337272	0.773758	-0.0360656	0.282892	0.534892	1.52325	0	0	0.0765794	-0.103161	0.239809	0.276384	1.5708	0	0
195.11	-2.39313	1.51399	1.11096	0.745151	0.992134	0.886733	-0.199962	-0.0314596	-0.216872	0.679461	-0.28482	0	0	0.40568	0.0286167	-0.103685	0.26411	-0.417197	0	0	-0.04509	0.0511096	0.334529	0.760658	-0.0330995	0.277684	0.547991	1.53424	0	0	0.0861405	-0.104728	0.256799	0.265036	1.5708	0	0
195.12	-2.629	1.48711	1.29411	0.746849	0.978103	0.885318	-0.148281	-0.0572531	-0.158535	0.72854	-0.304262	0	0	0.41589	0.0119333	-0.201047	0.262307	-0.398891	0	0	0.00197874	0.0506877	0.389479	0.724228	-0.0338844	0.27025	0.561599	1.54891	0	0	0.0746455	-0.101925	0.280282	0.249672	1.5708	0	0
195.13	-2.64585	1.48479	1.313	0.74994	0.969377	0.886039	-0.134127	-0.0652728	-0.155813	0.764225	-0.327541	0	0	0.409923	0.0155285	-0.207827	0.267184	-0.388286	0	0	0.00465546	0.0493762	0.389968	0.70795	-0.0350223	0.266967	0.58044	1.55629	0	0	0.0793012	-0.101882	0.295369	0.245487	1.5708	0	0
195.14	-2.67109	1.47921	1.33927	0.752579	0.960983	0.886437	-0.112889	-0.0731347	-0.151536	0.805424	-0.351453	0	0	0.405859	0.0188642	-0.211896	0.26742	-0.377452	0	0	0.0107302	0.0473888	0.391549	0.689855	-0.0369274	0.263265	0.602655	1.56201	0	0	0.0833953	-0.102769	0.307317	0.244633	1.5708	0	0
195.15	-2.68688	1.48067	1.35523	0.754966	0.952802	0.887605	-0.0992201	-0.0816863	-0.148028	0.844063	-0.369787	0	0	0.391821	0.0232149	-0.215547	0.262731	-0.369842	0	0	0.00785727	0.0440852	0.392489	0.675805	-0.0386497	0.264409	0.621919	1.56533	0	0	0.0878087	-0.103532	0.312804	0.247486	1.5708	0	0
195.16	-2.72629	1.48322	1.391	0.757568	0.944504	0.888954	-0.0849765	-0.0948552	-0.144512	0.883483	-0.387349	0	0	0.374138	0.0281031	-0.228015	0.253789	-0.363292	0	0	0.00532598	0.0396548	0.39565	0.660319	-0.0412768	0.274682	0.642015	1.56901	0	0	0.0901018	-0.103992	0.316214	0.252203	1.5708	0	0
195.17	-2.74688	1.48618	1.40995	0.759642	0.936336	0.890567	-0.0722073	-0.104158	-0.142327	0.919871	-0.404235	0	0	0.358857	0.0299561	-0.232555	0.252149	-0.357898	0	0	0.00193644	0.0357682	0.395662	0.643727	-0.0423408	0.287024	0.663575	1.5708	0	0	0.0924354	-0.10619	0.3146	0.258849	1.5708	0	0
195.18	-2.91042	1.50318	1.58253	0.763674	0.927245	0.892301	-0.036478	-0.171854	-0.351802	1.04302	-0.472905	0	0	0.321839	0.0503422	-0.235966	0.23578	-0.35245	0	0	-0.0132251	0.0202709	0.384977	0.623163	-0.0454866	0.296656	0.693927	1.5708	0	0	0.0914764	-0.111087	0.305316	0.274331	1.5708	0	0
195.19	-2.78703	1.49356	1.44619	0.763779	0.920521	0.893998	-0.0460356	-0.124039	-0.14094	0.992986	-0.424515	0	0	0.323746	0.0333446	-0.236481	0.240195	-0.342945	0	0	-0.00680592	0.0281068	0.396174	0.598516	-0.0477764	0.292263	0.724359	1.5708	0	0	0.0940905	-0.109171	0.284186	0.281604	1.5708	0	0
195.2	-2.7996	1.49323	1.45633	0.765622	0.913066	0.895329	-0.0264434	-0.131868	-0.137556	1.03051	-0.438039	0	0	0.312411	0.0328933	-0.236037	0.236899	-0.335585	0	0	-0.00654048	0.0258906	0.395016	0.577764	-0.0483216	0.292956	0.748554	1.5708	0	0	0.0950116	-0.11088	0.274028	0.290572	1.5708	0	0
195.21	-2.70089	1.4964	1.34525	0.766089	0.904701	0.896536	-0.0110857	-0.127119	-0.12005	1.06463	-0.452811	0	0	0.336977	0.0136402	-0.236003	0.341828	-0.28538	0	0	-0.0104972	0.0326218	0.40357	0.558383	-0.0497603	0.296813	0.771963	1.5708	0	0	0.0918035	-0.112496	0.254827	0.305532	1.5708	0	0
195.22	-2.83438	1.48969	1.48362	0.768917	0.898567	0.897673	0.0194108	-0.146715	-0.124253	1.10454	-0.453146	0	0	0.287693	0.034742	-0.227965	0.214255	-0.331724	0	0	-0.00290852	0.0210783	0.394958	0.541413	-0.0494141	0.298254	0.789745	1.5708	0	0	0.0941974	-0.113684	0.243921	0.311681	1.5708	0	0
195.23	-2.69306	1.49987	1.3324	0.769695	0.890207	0.89944	0.0236614	-0.138632	-0.110267	1.12832	-0.448739	0	0	0.305426	0.0125507	-0.240783	0.323706	-0.280929	0	0	-0.0149853	0.0306819	0.400326	0.527831	-0.0511351	0.305552	0.8075	1.5708	0	0	0.0903133	-0.113732	0.220381	0.327295	1.5708	0	0
195.24	-2.6309	1.51178	1.268	0.771554	0.882848	0.902791	0.0250039	-0.141145	-0.104564	1.14419	-0.437396	0	0	0.267704	0.0132673	-0.249637	0.290888	-0.287058	0	0	-0.0326794	0.0307753	0.389168	0.522376	-0.0443414	0.316354	0.815698	1.5708	0	0	0.0554097	-0.0652825	-0.34362	0.4076	1.53684	0	0
195.25	-2.6021	1.50417	1.24512	0.774187	0.876634	0.902268	0.051276	-0.142688	-0.105186	1.17377	-0.418384	0	0	0.273328	0.0107585	-0.239706	0.308382	-0.268313	0	0	-0.0220739	0.0355723	0.384452	0.507562	-0.0475565	0.316878	0.830539	1.5708	0	0	0.0829565	-0.111935	0.165888	0.35525	1.5708	0	0
195.26	-2.70983	1.49762	1.36087	0.777356	0.871323	0.90299	0.0801849	-0.156496	-0.106944	1.19917	-0.408754	0	0	0.216783	0.0342092	-0.208228	0.159589	-0.32724	0	0	-0.0140572	0.0298103	0.370839	0.49727	-0.0427379	0.315719	0.838836	1.5708	0	0	0.0836765	-0.111226	0.152615	0.360339	1.5708	0	0
195.27	-2.64589	1.50315	1.2928	0.778786	0.864746	0.904555	0.0919212	-0.154706	-0.094588	1.21489	-0.398776	0	0	0.182705	0.0375257	-0.181322	0.116161	-0.342983	0	0	-0.0217872	0.0334721	0.368074	0.489818	-0.039758	0.321056	0.848193	1.5708	0	0	0.0809327	-0.110169	0.132911	0.371957	1.5708	0	0
195.28	-2.6345	1.50098	1.27743	0.780308	0.858806	0.905143	0.115928	-0.155141	-0.0807199	1.23344	-0.391618	0	0	0.168363	0.0386633	-0.183447	0.0985186	-0.342329	0	0	-0.0201361	0.0359037	0.365729	0.481074	-0.037533	0.325889	0.857926	1.5708	0	0	0.0795395	-0.109984	0.127602	0.378832	1.5708	0	0
195.29	-2.6112	1.50159	1.26033	0.782728	0.85343	0.906255	0.13228	-0.157483	-0.0792559	1.24363	-0.389448	0	0	0.160436	0.0378724	-0.201271	0.101029	-0.342161	0	0	-0.0222453	0.0381432	0.35463	0.473673	-0.0354543	0.325767	0.86649	1.5708	0	0	0.0827779	-0.109939	0.134406	0.379405	1.5708	0	0
195.3	-2.59483	1.49464	1.24098	0.784251	0.847911	0.906738	0.160996	-0.153691	-0.0649586	1.25447	-0.383098	0	0	0.154075	0.0356921	-0.2057	0.0887162	-0.345112	0	0	-0.017619	0.0434051	0.345521	0.470343	-0.028113	0.326511	0.867718	1.5708	0	0	0.0539229	-0.0621063	-0.328013	0.431946	1.52497	0	0
195.31	-2.52014	1.4979	1.16808	0.785889	0.84207	0.907383	0.173077	-0.150325	-0.0601181	1.26026	-0.376119	0	0	0.128783	0.0351	-0.185664	0.0603449	-0.349025	0	0	-0.0208806	0.0478644	0.343558	0.463822	-0.029636	0.326394	0.874979	1.5708	0	0	0.0804685	-0.109626	0.134171	0.38966	1.5708	0	0
195.32	-2.25004	1.4444	0.894578	0.783665	0.836483	0.90256	0.232316	-0.0741771	-0.0339234	1.27387	-0.358602	0	0	0.133788	-0.0155404	-0.146218	0	-0.335509	0	0	0.015757	0.103046	0.335561	0.458425	-0.0272341	0.343791	0.881394	1.5708	0	0	0.0413896	-0.0640303	-0.304089	0.448214	1.52626	0	0
195.33	-2.25479	1.42163	0.909833	0.78727	0.831713	0.900626	0.270656	-0.0654301	-0.0403316	1.27889	-0.353415	0	0	0.167552	-0.0325722	-0.17643	0.0474386	-0.302584	0	0	0.0423733	0.122294	0.323696	0.448283	-0.0336884	0.351463	0.887746	1.5708	0	0	0.0609918	-0.109152	0.143588	0.408047	1.5708	0	0
195.34	-2.20422	1.44245	0.853298	0.786084	0.826637	0.903493	0.26931	-0.0665583	-0.0220912	1.28083	-0.343306	0	0	0.117705	-0.0238388	-0.148838	0	-0.331912	0	0	0.0136988	0.109016	0.329106	0.453911	-0.0271816	0.350575	0.887892	1.5708	0	0	0.0714236	-0.116138	0.162571	0.411173	1.5708	0	0
195.35	-2.32952	1.49414	0.983081	0.791309	0.822083	0.909603	0.247813	-0.131587	-0.030478	1.2719	-0.34508	0	0	0.0737402	0.0238813	-0.156448	0.000654994	-0.360979	0	0	-0.0273208	0.0650025	0.320786	0.45991	-0.024313	0.353475	0.883248	1.5708	0	0	0.0871054	-0.113307	0.174351	0.396334	1.5708	0	0
195.36	-2.29988	1.4945	0.953578	0.792265	0.817402	0.910105	0.266627	-0.127914	-0.0218205	1.27274	-0.342407	0	0	0.063091	0.0223504	-0.160629	0	-0.353975	0	0	-0.030209	0.0665605	0.316906	0.460308	-0.0212881	0.356669	0.883191	1.5708	0	0	0.087983	-0.113438	0.175826	0.399756	1.5708	0	0
195.37	-2.2315	1.49436	0.890012	0.793764	0.812739	0.910805	0.280664	-0.122586	-0.0188681	1.26917	-0.335683	0	0	0.0520364	0.0183167	-0.16206	0	-0.356398	0	0	-0.033967	0.0715787	0.309324	0.460264	-0.0204171	0.360969	0.8831	1.5708	0	0	0.0899461	-0.114184	0.18785	0.400667	1.5708	0	0
195.38	-2.17955	1.49304	0.842619	0.795005	0.808396	0.911344	0.297415	-0.116655	-0.0143463	1.26619	-0.328734	0	0	0.044027	0.0141203	-0.161704	0	-0.355525	0	0	-0.036676	0.0760123	0.302965	0.461241	-0.0193221	0.363069	0.882463	1.5708	0	0	0.0923943	-0.114889	0.19735	0.401204	1.5708	0	0
195.39	-2.11489	1.49278	0.786024	0.79668	0.804604	0.911961	0.311767	-0.112576	-0.0136758	1.26253	-0.324764	0	0	0.0349778	0.0111625	-0.157348	0	-0.354022	0	0	-0.0419898	0.0808681	0.294371	0.463796	-0.0191753	0.363736	0.882427	1.5708	0	0	0.0959099	-0.113991	0.201778	0.401696	1.5708	0	0
195.4	-2.05939	1.49222	0.736965	0.798178	0.800742	0.912536	0.326788	-0.107985	-0.0109307	1.25874	-0.321497	0	0	0.0263165	0.00847392	-0.15491	0	-0.352216	0	0	-0.0465505	0.0853914	0.287687	0.466514	-0.0187364	0.363639	0.881833	1.5708	0	0	0.098961	-0.113029	0.204781	0.401988	1.5708	0	0
